<?xml version="1.0" standalone="no"?>
<!DOCTYPE svg PUBLIC "-//W3C//DTD SVG 20010904//EN"
 "http://www.w3.org/TR/2001/REC-SVG-20010904/DTD/svg10.dtd">
<svg version="1.0" xmlns="http://www.w3.org/2000/svg"
 width="294.000000pt" height="294.000000pt" viewBox="0 0 294.000000 294.000000"
 preserveAspectRatio="xMidYMid meet">
<metadata>
Created by potrace 1.14, written by Peter Selinger 2001-2017
</metadata>
<g transform="translate(0.000000,294.000000) scale(0.100000,-0.100000)"
fill="#000000" stroke="none">
<path d="M527 2901 c-9 -16 -17 -45 -17 -64 0 -20 -4 -39 -10 -42 -5 -3 -10
-19 -10 -36 0 -25 4 -29 29 -29 41 0 58 24 43 62 -13 36 -9 48 18 48 23 0 26
-5 35 -56 6 -38 4 -42 -18 -48 -16 -4 -29 -17 -36 -37 -10 -29 -19 -287 -37
-1034 -4 -159 -8 -320 -8 -357 -1 -76 -17 -104 -40 -72 -13 17 -14 15 -9 -26
3 -25 12 -53 21 -62 13 -16 13 -18 -4 -24 -58 -18 -60 -21 -56 -57 2 -23 -8
-71 -31 -138 -38 -114 -141 -396 -161 -444 -35 -84 -36 -94 -9 -115 19 -14 41
-20 79 -20 30 0 121 -11 202 -25 81 -13 219 -36 307 -50 88 -14 196 -32 240
-40 44 -8 141 -24 215 -35 74 -11 173 -27 220 -35 47 -8 132 -22 190 -30 115
-17 305 -47 445 -71 49 -8 109 -21 133 -29 60 -21 78 -19 111 13 21 19 44 66
79 162 149 403 179 477 205 507 37 42 61 128 44 157 -11 20 -12 20 -15 -9 -2
-16 -11 -41 -21 -54 -18 -24 -19 -24 -37 -6 -19 18 -19 18 -22 -2 -2 -15 -18
-26 -56 -40 l-54 -20 -37 22 -37 23 22 20 22 21 -36 6 c-20 4 -36 11 -36 15 0
5 -15 11 -32 13 l-33 4 37 1 c35 2 37 3 35 37 -2 38 -20 42 -25 6 -3 -20 -8
-22 -30 -16 -15 4 -46 9 -69 12 -26 3 -43 10 -43 18 0 21 -31 27 -51 9 -14
-13 -21 -13 -41 -3 -13 6 -26 17 -30 23 -5 8 -16 8 -37 -1 -16 -6 -33 -8 -36
-5 -4 4 -21 8 -38 9 -99 8 -111 11 -124 29 -9 13 -23 18 -40 16 -24 -4 -25 -2
-14 12 12 14 11 16 -6 16 -10 0 -23 -4 -28 -9 -11 -10 -73 -15 -143 -13 -28 1
-48 9 -59 22 -10 11 -23 20 -30 20 -7 0 -13 7 -13 15 0 20 -12 19 -55 -5 -38
-21 -90 -27 -100 -10 -3 6 -17 10 -31 10 -13 0 -24 5 -24 10 0 6 -9 10 -19 10
-11 0 -26 6 -34 14 -8 9 -24 12 -36 9 -11 -3 -32 2 -45 10 -20 13 -26 14 -35
3 -6 -7 -8 -16 -5 -19 9 -9 -59 -3 -73 6 -7 5 -18 5 -24 1 -6 -3 -14 -3 -18 2
-3 5 -19 18 -34 27 -21 14 -32 16 -42 7 -9 -8 -14 -7 -19 5 -3 8 -16 15 -30
15 -20 0 -23 4 -19 21 6 21 5 21 -33 -5 -63 -43 -164 -29 -164 23 0 24 0 24
-21 5 -24 -21 -90 -24 -114 -4 -9 8 -15 29 -15 56 0 36 3 44 19 44 10 0 24 7
31 15 16 19 40 20 40 1 0 -8 7 -16 15 -20 17 -6 45 2 45 14 0 12 48 -1 61 -16
8 -10 15 -11 31 -1 16 10 22 9 37 -9 13 -16 26 -21 50 -18 20 2 38 -2 48 -11
19 -19 29 -19 37 1 5 13 9 14 21 4 8 -7 26 -10 40 -8 14 3 28 1 31 -4 3 -5 14
-6 24 -3 10 3 21 1 25 -5 4 -7 19 -9 35 -5 22 5 31 1 43 -16 10 -13 20 -18 28
-13 16 10 59 12 59 3 0 -13 44 -18 52 -7 5 9 19 9 56 0 27 -7 53 -12 58 -11 5
2 20 -1 32 -5 18 -6 22 -13 18 -27 -19 -60 -19 -62 -8 -55 7 4 12 13 12 20 0
16 64 49 68 36 2 -6 10 -10 18 -10 8 0 14 -6 14 -12 0 -7 8 -3 18 9 12 16 21
20 32 13 8 -5 38 -12 67 -16 30 -3 60 -14 72 -25 16 -15 25 -17 40 -9 23 12
47 5 55 -16 8 -20 27 -17 24 4 -2 12 3 16 17 14 11 -2 39 -5 63 -6 23 -2 55
-9 70 -16 15 -6 42 -19 60 -28 30 -14 33 -14 46 3 12 17 14 17 33 -2 15 -15
25 -18 44 -11 13 5 35 6 49 2 71 -20 120 -11 120 22 0 28 -6 30 -26 9 -21 -21
-74 5 -74 37 0 7 -7 2 -16 -11 -12 -17 -22 -21 -41 -16 -29 7 -53 28 -53 45 0
8 -11 10 -35 6 -33 -7 -35 -5 -35 21 0 22 -2 25 -10 13 -5 -8 -10 -25 -10 -37
0 -18 -6 -23 -25 -23 -26 0 -65 31 -66 53 0 6 -4 2 -9 -10 -8 -19 -14 -22 -42
-16 -18 3 -36 11 -39 16 -4 5 -16 7 -27 5 -21 -6 -62 23 -62 43 0 7 -7 8 -17
4 -10 -4 -26 -8 -36 -9 -9 -1 -23 -8 -29 -14 -17 -17 -39 -15 -93 8 -31 13
-52 17 -63 11 -26 -15 -49 7 -44 41 4 28 3 29 -17 19 -22 -12 -29 -31 -11 -31
6 0 10 -7 10 -15 0 -22 -27 -18 -51 6 -15 15 -24 18 -32 10 -15 -15 -48 -13
-71 4 -11 8 -32 15 -48 15 -23 0 -28 4 -28 26 l0 26 -37 -23 -36 -22 -21 24
c-22 25 -22 25 -47 7 -23 -17 -31 -18 -97 -7 -54 9 -72 16 -72 28 -1 14 -2 14
-14 -1 -14 -19 -42 -26 -31 -8 3 6 -5 14 -19 20 -16 6 -26 17 -26 30 0 28 -18
25 -32 -5 -10 -22 -17 -25 -64 -25 -29 0 -56 5 -59 10 -3 6 -15 10 -26 10 -11
0 -17 5 -14 10 4 6 3 10 -2 9 -27 -5 -53 3 -53 16 0 17 -16 20 -25 5 -8 -12
-35 -13 -54 -1 -9 6 -11 20 -6 49 5 33 13 45 37 56 28 15 31 14 47 -6 14 -17
21 -19 39 -9 29 16 67 14 82 -4 9 -11 16 -12 25 -5 17 14 75 1 75 -17 0 -10 6
-13 15 -9 8 3 21 8 28 11 8 4 19 -6 26 -22 l13 -28 18 23 c21 26 30 28 30 7 0
-17 16 -20 25 -6 5 9 64 5 95 -6 8 -4 23 -5 33 -4 12 2 22 -8 30 -28 6 -17 14
-30 17 -28 58 31 84 40 87 31 2 -6 16 -9 31 -6 27 5 27 5 8 -17 -24 -27 -13
-27 23 0 24 17 32 19 50 9 12 -6 29 -10 39 -9 32 3 42 -1 42 -16 0 -17 55 -21
65 -5 10 15 35 12 29 -4 -7 -19 14 -30 30 -17 9 8 30 8 72 1 32 -6 74 -13 93
-16 30 -5 31 -7 16 -18 -26 -19 -10 -39 18 -23 12 6 27 18 33 26 16 20 44 6
44 -21 l0 -23 20 25 c12 15 23 21 27 15 5 -5 28 -11 53 -13 25 -1 69 -12 97
-23 29 -12 59 -19 68 -16 8 4 17 2 20 -3 4 -6 17 -7 29 -4 26 6 40 -14 29 -43
-4 -13 -3 -15 5 -8 5 6 12 19 14 30 4 25 34 31 56 11 14 -12 25 -13 60 -4 23
6 42 16 42 23 0 15 -55 27 -117 26 -31 -1 -43 3 -43 13 0 23 -16 27 -46 12
-19 -10 -33 -12 -45 -5 -10 5 -36 9 -59 9 -31 0 -41 4 -37 13 4 10 -3 12 -24
9 -15 -2 -43 1 -61 7 -18 6 -36 7 -40 3 -14 -14 -60 -2 -54 14 8 22 -13 27
-39 10 -28 -19 -35 -20 -35 -6 0 6 7 10 15 10 8 0 15 9 15 19 0 11 5 23 10 26
6 3 10 11 10 17 0 6 -10 2 -23 -10 -25 -23 -47 -29 -47 -12 0 19 -17 10 -28
-15 -12 -26 -45 -34 -57 -14 -4 6 -21 9 -39 8 -57 -4 -74 0 -72 18 0 10 -9 20
-24 24 -14 4 -19 7 -11 8 8 1 11 4 8 7 -4 4 -13 1 -22 -6 -8 -7 -15 -9 -15 -5
0 4 -11 0 -25 -9 -29 -19 -42 -20 -75 -3 -14 7 -53 14 -88 14 -35 1 -73 5 -85
9 -20 6 -20 7 -2 20 17 13 16 14 -17 14 -20 0 -40 -4 -43 -10 -3 -5 -17 -10
-30 -10 -13 0 -27 5 -30 10 -3 6 -26 10 -49 10 -45 0 -60 10 -69 45 -4 15 -5
13 -6 -7 -1 -24 -5 -28 -32 -28 -17 0 -37 7 -45 15 -12 11 -20 12 -35 5 -15
-8 -19 -7 -19 5 0 8 6 15 13 15 6 0 20 14 29 30 24 41 -3 42 -33 0 -27 -35
-79 -49 -114 -30 -13 7 -35 10 -49 6 -25 -6 -45 7 -26 19 5 3 10 11 10 18 0 8
-3 8 -12 -1 -7 -7 -17 -8 -29 -2 -12 7 -22 6 -33 -5 -19 -19 -46 -19 -46 0 0
8 -4 15 -10 15 -5 0 -10 24 -9 53 0 28 3 46 6 40 3 -10 11 -9 34 2 23 13 32
13 49 3 12 -8 18 -19 14 -30 -3 -10 -1 -18 5 -18 14 0 26 22 22 44 -2 16 2 18
25 12 16 -4 53 -12 84 -17 30 -6 61 -18 67 -26 10 -13 17 -14 38 -5 14 6 25 8
25 3 0 -15 49 -35 62 -24 25 19 176 -1 195 -26 6 -9 9 -26 6 -38 -3 -13 -1
-23 6 -23 15 0 32 36 25 54 -4 11 -1 16 10 16 9 0 16 -5 16 -11 0 -7 9 -9 21
-6 13 4 26 -1 37 -13 16 -19 38 -17 26 2 -4 7 6 8 32 5 70 -10 104 -19 104
-27 0 -13 33 -22 40 -11 3 7 21 5 48 -5 30 -10 48 -11 62 -4 13 7 20 6 22 -2
3 -7 22 -11 48 -10 45 2 110 -15 122 -33 5 -6 15 -5 28 3 16 10 25 10 35 2 8
-7 19 -9 25 -5 6 4 17 1 25 -5 8 -6 24 -10 37 -9 53 5 142 -14 167 -37 22 -21
27 -22 51 -9 27 14 94 11 115 -5 10 -8 103 -5 111 3 3 3 1 20 -4 38 -8 31 -9
32 -16 12 -8 -26 -27 -29 -56 -11 -15 9 -27 10 -48 2 -24 -9 -35 -8 -56 5 -25
14 -27 20 -21 56 l6 40 -28 -26 c-51 -48 -105 -63 -131 -37 -6 6 -24 12 -39
13 -16 1 -54 2 -86 3 -32 1 -56 5 -54 10 3 4 -9 7 -26 7 -37 -1 -74 19 -80 43
-4 15 -5 15 -6 1 -1 -21 -38 -31 -63 -18 -10 5 -37 9 -61 9 -23 -1 -62 4 -87
10 -57 15 -141 30 -205 37 -27 3 -55 9 -61 14 -6 5 -15 4 -23 -4 -9 -9 -13 -7
-18 11 -4 19 -10 22 -27 17 -50 -17 -86 -17 -101 -1 -12 12 -36 16 -95 16 -72
0 -79 2 -94 25 -9 13 -16 31 -16 40 0 24 -26 18 -38 -9 -10 -22 -17 -24 -61
-23 -27 1 -53 6 -57 10 -4 4 -16 7 -26 7 -11 0 -18 7 -18 20 0 24 -8 25 -34 5
-27 -21 -76 -20 -76 1 0 11 -6 15 -20 11 -18 -4 -20 0 -20 35 0 21 4 37 9 34
12 -8 22 20 14 40 -5 15 -1 16 33 9 21 -4 60 -9 85 -10 25 -1 55 -8 67 -14 11
-6 28 -8 36 -5 9 4 22 1 30 -5 7 -6 27 -11 42 -9 16 1 44 -6 63 -16 24 -13 36
-15 44 -7 15 15 27 14 27 -4 0 -11 5 -12 25 -5 27 10 131 -8 186 -33 41 -19
67 -23 94 -14 25 8 229 -26 218 -37 -4 -5 7 -5 25 -1 28 6 32 4 32 -14 0 -11
5 -23 10 -26 6 -3 10 3 10 13 0 26 23 34 48 16 19 -13 78 -20 186 -23 33 -1
38 -4 33 -21 -7 -29 12 -36 29 -11 11 15 20 19 31 12 9 -4 24 -6 34 -4 11 3
26 0 34 -7 8 -7 34 -13 58 -14 23 -1 48 -5 54 -9 7 -4 24 -5 38 -1 17 4 25 2
25 -7 0 -9 12 -14 30 -15 37 -1 46 -9 32 -27 -15 -17 -3 -30 14 -17 6 6 10 20
7 30 -4 14 0 20 11 20 9 0 16 -4 16 -9 0 -6 16 -7 35 -4 24 4 35 2 35 -6 0 -8
12 -4 30 9 18 13 27 26 23 36 -4 11 -8 12 -20 2 -11 -9 -22 -9 -49 1 -19 7
-43 9 -54 6 -15 -5 -20 -2 -20 12 0 13 -3 14 -8 5 -7 -9 -25 -10 -90 0 -45 6
-82 15 -82 20 0 4 -22 8 -48 8 -27 0 -52 3 -56 8 -4 4 -33 8 -64 9 -86 2 -125
8 -152 23 -14 8 -51 15 -83 15 -31 1 -60 5 -64 8 -3 4 -28 7 -55 7 -26 0 -48
4 -48 10 0 5 -22 9 -50 9 -27 -1 -55 3 -62 9 -10 8 -191 32 -240 32 -4 0 -8 6
-8 13 0 10 -17 14 -57 14 -32 0 -74 3 -93 6 -40 6 -44 7 -200 33 -63 10 -118
23 -121 28 -4 5 -24 6 -44 3 -55 -9 -75 6 -75 53 0 21 5 42 10 45 6 3 10 17
10 31 0 13 5 24 10 24 6 0 10 -4 10 -10 0 -5 6 -10 14 -10 8 0 16 -6 19 -12 2
-9 21 -12 55 -11 29 1 52 -1 52 -6 0 -4 13 -8 30 -7 16 1 30 4 30 9 0 14 26 6
43 -14 13 -15 25 -19 43 -15 18 5 24 2 24 -9 0 -12 4 -14 17 -6 11 6 24 6 36
-1 10 -5 25 -7 34 -4 22 9 36 -3 23 -19 -14 -17 -31 -75 -22 -75 7 0 45 77 47
95 0 6 16 9 35 7 32 -2 54 -18 63 -45 2 -6 11 -5 26 2 31 17 35 10 23 -43 -5
-25 -6 -43 -1 -40 5 3 9 16 9 29 0 13 5 27 10 30 6 4 10 16 8 28 -2 13 2 22
10 21 6 -1 21 -2 32 -2 12 -1 33 -14 47 -29 15 -16 24 -21 20 -11 -3 9 0 19 7
21 16 6 36 -11 36 -30 0 -17 10 -16 50 3 31 16 33 16 55 -10 20 -23 26 -25 49
-16 35 13 36 13 36 -4 0 -15 50 -10 61 6 4 6 15 5 27 -3 16 -10 19 -17 10 -32
-6 -13 -7 -22 0 -29 16 -16 32 1 32 35 0 33 15 28 22 -8 4 -25 34 -27 32 -2
-2 18 21 24 31 7 5 -8 11 -7 21 1 11 9 18 6 35 -15 18 -23 48 -28 34 -5 -4 5
12 9 34 9 23 0 41 -5 41 -11 0 -7 10 -9 25 -5 35 9 77 -3 71 -20 -3 -8 1 -14
8 -14 8 0 21 -3 30 -6 11 -4 16 0 16 12 0 11 3 15 8 8 10 -15 69 -37 80 -30 6
3 24 3 42 0 24 -5 30 -11 27 -25 -4 -14 -1 -16 16 -10 12 4 23 13 25 19 2 7
-3 10 -12 6 -9 -4 -16 -1 -16 6 0 8 8 10 23 5 29 -9 102 -9 117 0 18 11 -8 34
-38 33 -15 0 -42 4 -59 10 -20 6 -33 7 -33 1 0 -5 -10 -9 -22 -9 -22 1 -22 1
-4 15 18 13 18 16 2 49 -16 35 -31 43 -86 49 -18 1 -28 -5 -38 -25 -14 -30
-32 -37 -32 -13 0 8 8 30 18 50 15 32 20 35 47 29 38 -8 74 -12 153 -19 35 -3
72 -9 82 -15 26 -14 44 20 36 65 -5 27 -2 37 25 63 28 27 31 36 26 68 -5 31
-2 41 24 67 29 29 31 34 24 81 -5 44 -4 52 16 67 22 16 22 18 6 43 -10 14 -31
33 -47 41 -31 16 -40 51 -20 71 7 7 -53 20 -178 39 -103 15 -200 30 -216 33
-20 3 -27 1 -22 -7 4 -6 17 -11 29 -11 13 0 33 -7 46 -16 17 -12 26 -13 34 -5
16 16 44 14 72 -5 13 -9 29 -13 34 -9 15 9 51 -13 51 -30 0 -8 -9 -15 -20 -15
-11 0 -20 5 -20 11 0 7 -16 9 -49 4 -36 -5 -52 -3 -63 9 -9 8 -24 12 -36 10
-11 -3 -23 -1 -26 4 -4 6 -29 8 -61 5 -48 -5 -55 -3 -55 11 0 14 -6 16 -29 11
-17 -3 -32 -2 -36 4 -4 7 -22 9 -45 5 -28 -5 -47 -2 -63 9 -16 10 -37 13 -70
10 -37 -4 -48 -2 -53 11 -3 9 -1 22 5 30 14 17 4 26 -28 26 -23 0 -24 -1 -6
-13 10 -8 15 -19 11 -25 -8 -13 -39 -16 -50 -5 -3 4 -28 6 -55 4 -37 -2 -50 1
-55 14 -5 13 -10 14 -26 5 -16 -9 -25 -8 -36 1 -9 7 -36 12 -65 10 -38 -2 -49
1 -49 13 0 12 -5 13 -30 4 -23 -8 -39 -7 -63 3 -17 7 -42 12 -54 11 -11 -2
-24 1 -27 7 -4 6 -25 8 -50 5 -38 -6 -45 -3 -60 17 -15 22 -15 25 0 36 17 12
11 14 -91 29 -24 3 -26 2 -10 -5 11 -5 32 -12 48 -15 15 -4 27 -13 27 -20 0
-19 -29 -29 -45 -16 -7 6 -30 8 -53 4 -34 -5 -42 -3 -53 14 -10 16 -17 18 -36
11 -18 -6 -23 -5 -23 6 0 17 -26 20 -35 5 -3 -5 -22 -10 -41 -10 -27 0 -34 4
-34 19 0 11 -6 22 -12 24 -10 4 -10 8 1 15 11 8 6 12 -22 17 -43 8 -56 22 -59
61 -2 40 -15 54 -49 54 -16 0 -29 5 -29 10 0 19 -16 10 -33 -19z m0 -93 c-3
-8 -6 -5 -6 6 -1 11 2 17 5 13 3 -3 4 -12 1 -19z m1899 -313 c20 -20 9 -35
-26 -35 -49 0 -43 39 8 49 2 1 10 -6 18 -14z m-1807 -271 c26 -5 31 -11 31
-35 0 -19 -9 -34 -27 -47 -54 -37 -53 -37 -53 27 0 34 4 61 9 61 5 0 23 -3 40
-6z m81 -39 c0 -20 20 -19 35 1 9 13 20 15 48 10 37 -7 46 -23 26 -43 -6 -6
-9 -23 -6 -39 4 -29 4 -28 6 4 0 20 6 32 15 32 7 0 19 7 26 15 7 8 17 12 22 9
10 -6 2 -55 -10 -64 -4 -3 -13 -17 -19 -32 -26 -58 -83 -26 -83 46 0 19 -4 22
-25 19 -13 -3 -29 -11 -35 -18 -13 -16 -50 -8 -50 11 0 8 5 14 10 14 6 0 10
11 10 25 0 16 6 25 15 25 8 0 15 -7 15 -15z m297 -29 c12 -12 -13 -36 -37 -36
-32 0 -45 13 -36 37 5 11 14 14 38 9 17 -3 33 -8 35 -10z m75 -25 c-3 -12 0
-12 12 -2 10 9 29 11 53 7 21 -3 60 -9 86 -12 32 -5 53 -14 63 -28 11 -14 18
-17 21 -9 3 9 23 10 71 6 51 -5 72 -11 91 -29 31 -31 22 -56 -17 -48 -21 4
-31 2 -35 -10 -4 -10 -1 -16 8 -16 9 0 15 -9 15 -21 0 -16 -4 -19 -17 -14 -10
4 -38 11 -62 15 -24 4 -50 14 -56 23 -10 14 -14 14 -34 -6 -20 -20 -23 -21
-32 -5 -8 14 -19 16 -58 11 -31 -3 -51 -1 -55 6 -4 6 -21 11 -38 11 -24 0 -29
4 -25 18 12 45 12 47 -15 50 -23 3 -28 8 -28 31 0 15 3 31 7 35 12 12 48 1 45
-13z m-415 -22 c22 -8 24 -12 13 -19 -23 -15 -80 -12 -80 3 0 29 21 34 67 16z
m88 -18 c6 -11 -33 -36 -42 -27 -3 3 -3 12 0 21 7 17 33 20 42 6z m776 -36
c-1 -15 -24 -12 -29 3 -3 9 2 13 12 10 10 -1 17 -7 17 -13z m107 -23 l3 -22
26 20 c31 24 48 25 88 4 17 -9 57 -17 90 -19 33 -2 83 -9 110 -15 28 -7 66
-13 85 -15 19 -1 43 -3 53 -4 25 -2 21 -16 -20 -71 -37 -49 -73 -65 -88 -39
-5 7 -25 8 -55 4 -30 -4 -50 -3 -55 4 -3 6 -20 11 -36 11 -35 0 -36 23 -1 28
12 2 22 10 22 18 0 20 -12 18 -66 -11 -37 -19 -50 -22 -66 -14 -11 6 -36 9
-54 7 -40 -5 -44 4 -9 20 30 14 33 42 6 42 -11 0 -27 10 -35 21 -12 17 -21 20
-45 16 -26 -5 -31 -3 -31 12 0 26 10 32 45 29 22 -2 31 -9 33 -26z m-96 -634
c-6 -6 -15 -8 -19 -4 -4 4 -1 11 7 16 19 12 27 3 12 -12z m-972 -227 c0 -6 -4
-13 -10 -16 -5 -3 -10 1 -10 9 0 9 5 16 10 16 6 0 10 -4 10 -9z m-10 -41 c0
-5 -4 -10 -10 -10 -5 0 -10 5 -10 10 0 6 5 10 10 10 6 0 10 -4 10 -10z m206
-25 c15 -32 -12 -61 -48 -50 -42 14 -50 46 -15 63 35 17 51 14 63 -13z m63 -7
c10 -25 -3 -48 -25 -48 -17 0 -18 37 -1 43 9 4 8 8 -3 16 -13 9 -13 11 3 11
10 0 21 -10 26 -22z m79 -17 c9 -5 25 -12 35 -15 40 -12 5 -36 -54 -36 -32 0
-46 35 -21 50 21 12 19 12 40 1z m145 -8 c-7 -2 -21 -2 -30 0 -10 3 -4 5 12 5
17 0 24 -2 18 -5z m47 -13 c-23 -7 -23 -8 -3 -9 12 -1 25 -6 29 -12 3 -6 17
-9 30 -6 29 5 55 -20 35 -33 -17 -10 -144 0 -152 13 -4 5 -20 6 -38 2 -27 -6
-31 -4 -31 14 0 25 15 35 37 22 12 -6 28 -5 48 4 17 7 39 13 50 13 16 0 15 -2
-5 -8z m200 -56 c13 -11 21 -11 44 1 34 18 67 19 64 3 -2 -7 8 -14 22 -16 14
-1 35 -8 48 -14 16 -8 28 -8 45 -1 38 19 56 22 62 13 4 -6 0 -10 -7 -10 -9 0
-9 -3 2 -10 8 -5 27 -10 42 -10 15 0 30 -5 33 -11 4 -6 19 -7 36 -4 18 4 41 1
60 -9 17 -9 36 -13 42 -9 17 10 67 5 84 -9 9 -7 25 -12 35 -10 11 2 26 -2 34
-8 11 -10 19 -9 39 4 27 18 39 21 30 7 -8 -14 33 -34 66 -33 15 0 33 -6 40
-14 10 -13 14 -12 30 2 17 16 22 16 62 0 55 -21 71 -21 63 2 -4 10 2 7 13 -8
13 -17 28 -24 44 -22 36 5 78 -15 71 -33 -7 -18 -64 -21 -81 -4 -6 6 -48 12
-93 14 -45 1 -85 7 -89 13 -3 6 -17 10 -31 11 -68 1 -139 9 -151 17 -15 10
-26 11 -106 18 -28 2 -57 8 -65 12 -7 4 -33 9 -58 10 -44 1 -90 10 -120 21 -8
4 -36 5 -62 4 -36 -2 -49 1 -54 13 -5 13 -22 16 -89 16 -46 0 -87 4 -90 10 -3
5 -18 7 -33 4 -19 -4 -35 1 -52 15 -24 20 -24 22 -7 35 20 15 53 11 77 -10z
m165 6 c3 -5 -1 -10 -9 -10 -9 0 -16 5 -16 10 0 6 4 10 9 10 6 0 13 -4 16 -10z
m285 -50 c0 -6 -11 -8 -27 -4 -40 10 -41 14 -5 14 18 0 32 -5 32 -10z m-865
-521 c66 -11 149 -25 185 -30 77 -11 104 -35 94 -84 -4 -16 -11 -36 -16 -42
-11 -14 -46 -17 -72 -7 -14 5 -14 9 -1 34 8 16 15 33 15 38 0 14 -183 40 -193
28 -5 -7 -11 -5 -17 6 -7 11 -30 18 -78 23 -37 4 -78 9 -92 12 -14 3 -54 9
-90 14 -36 4 -80 12 -98 18 -39 12 -33 11 -83 11 -28 0 -39 4 -37 13 14 40 78
35 483 -34z m1472 45 c-3 -3 -12 -4 -19 -1 -8 3 -5 6 6 6 11 1 17 -2 13 -5z
m-1907 -84 c0 -5 -5 -10 -11 -10 -5 0 -7 5 -4 10 3 6 8 10 11 10 2 0 4 -4 4
-10z m107 -15 c-4 -13 -43 -19 -65 -10 -14 5 -14 7 -2 15 19 12 71 8 67 -5z
m73 -10 c0 -8 -7 -15 -15 -15 -26 0 -18 20 13 29 1 1 2 -6 2 -14z m102 -7 c13
2 16 -1 12 -12 -4 -11 -19 -16 -45 -16 -21 0 -39 3 -39 6 0 12 35 32 45 26 5
-4 18 -5 27 -4z m118 -29 c0 -15 -28 -22 -58 -14 -25 6 -25 8 -9 19 18 14 67
10 67 -5z m67 -16 c-9 -9 -19 -14 -23 -11 -10 10 6 28 24 28 15 0 15 -1 -1
-17z m993 -52 c326 -54 346 -59 359 -82 11 -21 11 -29 -3 -62 -14 -35 -19 -38
-48 -35 -40 4 -46 31 -8 36 14 2 31 9 38 15 11 9 11 13 -4 24 -10 7 -29 13
-43 13 -14 0 -147 21 -296 46 -148 25 -294 48 -323 51 -55 6 -79 26 -51 44 19
12 -6 15 379 -50z m-885 39 c-3 -5 -22 -10 -41 -10 -21 0 -33 4 -29 10 3 6 22
10 41 10 21 0 33 -4 29 -10z m545 -84 c0 -2 -7 -6 -15 -10 -8 -3 -15 -1 -15 4
0 6 7 10 15 10 8 0 15 -2 15 -4z m77 -12 c28 -8 20 -24 -12 -24 -25 0 -39 12
-28 24 8 7 12 7 40 0z m98 -24 c-3 -5 -13 -10 -21 -10 -8 0 -12 5 -9 10 3 6
13 10 21 10 8 0 12 -4 9 -10z m83 -6 c36 -10 25 -24 -19 -24 -36 0 -40 2 -29
15 14 17 16 17 48 9z m122 -30 c0 -9 -11 -14 -29 -14 -35 0 -48 15 -25 28 22
12 54 4 54 -14z m80 -3 c0 -12 -20 -25 -27 -18 -7 7 6 27 18 27 5 0 9 -4 9 -9z
m98 -23 c-3 -7 -15 -13 -28 -13 -13 0 -25 6 -27 13 -3 8 6 12 27 12 21 0 30
-4 28 -12z"/>
<path d="M1167 2073 c-13 -12 -7 -43 8 -43 9 0 15 9 15 25 0 24 -10 32 -23 18z"/>
<path d="M1250 2040 c0 -5 5 -10 11 -10 5 0 7 5 4 10 -3 6 -8 10 -11 10 -2 0
-4 -4 -4 -10z"/>
<path d="M775 2771 c11 -5 32 -10 48 -10 15 -1 27 -5 27 -9 0 -4 17 -6 38 -3
l37 4 -35 8 c-66 13 -136 19 -115 10z"/>
<path d="M1151 2711 c8 -6 40 -12 70 -15 62 -7 31 7 -41 17 -30 5 -40 4 -29
-2z"/>
<path d="M1330 2680 c8 -5 22 -10 30 -10 13 0 13 1 0 10 -8 5 -22 10 -30 10
-13 0 -13 -1 0 -10z"/>
<path d="M1450 2660 c8 -5 30 -10 49 -10 45 0 37 6 -19 14 -31 4 -40 3 -30 -4z"/>
<path d="M1615 2630 c3 -5 15 -10 26 -10 11 0 17 5 14 10 -3 6 -15 10 -26 10
-11 0 -17 -4 -14 -10z"/>
<path d="M1790 2610 c0 -15 21 -23 32 -12 6 6 2 11 -11 15 -12 3 -21 1 -21 -3z"/>
<path d="M1909 2586 c16 -19 79 -32 93 -18 13 13 3 18 -56 27 -45 6 -49 5 -37
-9z"/>
<path d="M2710 2551 c0 -6 5 -13 10 -16 6 -3 10 -24 10 -46 0 -44 -41 -119
-65 -119 -8 0 -18 -8 -23 -17 -5 -10 -12 -211 -16 -448 -4 -236 -11 -555 -16
-707 -10 -277 -12 -293 -51 -370 -6 -12 -5 -16 4 -12 7 2 17 14 22 27 7 14 18
21 32 20 20 -2 21 3 27 120 3 67 12 398 20 736 8 370 18 616 24 620 5 3 19 25
31 48 28 57 29 173 0 173 -5 0 -9 -4 -9 -9z"/>
<path d="M2593 2524 l-26 -26 20 -17 c12 -9 23 -25 26 -36 3 -14 5 -12 6 9 0
16 8 37 17 47 17 19 13 49 -6 49 -6 0 -23 -12 -37 -26z"/>
<path d="M257 2074 c-18 -58 -12 -84 19 -84 10 0 14 14 13 53 -1 86 -12 97
-32 31z"/>
<path d="M900 1925 c0 -8 5 -15 10 -15 6 0 10 7 10 15 0 8 -4 15 -10 15 -5 0
-10 -7 -10 -15z"/>
<path d="M667 1823 c-4 -3 -7 -11 -7 -17 0 -6 5 -5 12 2 6 6 9 14 7 17 -3 3
-9 2 -12 -2z"/>
<path d="M1569 1823 c-23 -6 -33 -45 -11 -41 9 2 17 8 17 13 0 6 4 16 8 23 5
6 7 11 5 11 -2 -1 -10 -3 -19 -6z"/>
<path d="M1776 1805 c-3 -8 -1 -15 4 -15 6 0 10 7 10 15 0 8 -2 15 -4 15 -2 0
-6 -7 -10 -15z"/>
<path d="M1850 1770 c-8 -5 -10 -10 -5 -10 6 0 17 5 25 10 8 5 11 10 5 10 -5
0 -17 -5 -25 -10z"/>
<path d="M640 1760 c0 -5 5 -10 10 -10 6 0 10 5 10 10 0 6 -4 10 -10 10 -5 0
-10 -4 -10 -10z"/>
<path d="M2320 1734 c0 -8 5 -12 10 -9 6 3 10 10 10 16 0 5 -4 9 -10 9 -5 0
-10 -7 -10 -16z"/>
<path d="M2209 1714 c-12 -14 -11 -16 5 -13 11 2 21 10 24 17 5 17 -13 15 -29
-4z"/>
<path d="M1197 1693 c-4 -3 -7 -13 -7 -22 1 -13 3 -13 11 2 11 19 8 33 -4 20z"/>
<path d="M1476 1634 c-4 -9 -4 -19 -1 -22 2 -3 7 3 11 12 4 9 4 19 1 22 -2 3
-7 -3 -11 -12z"/>
<path d="M1833 1593 c-15 -5 -18 -33 -4 -33 8 0 25 30 19 35 -2 1 -9 0 -15 -2z"/>
<path d="M2126 1568 c-10 -30 -16 -68 -12 -68 6 0 36 60 36 72 0 13 -20 9 -24
-4z"/>
<path d="M1890 1450 c0 -5 4 -10 9 -10 6 0 13 5 16 10 3 6 -1 10 -9 10 -9 0
-16 -4 -16 -10z"/>
<path d="M2190 1339 c0 -5 5 -7 10 -4 6 3 10 8 10 11 0 2 -4 4 -10 4 -5 0 -10
-5 -10 -11z"/>
<path d="M2391 1294 c0 -11 3 -14 6 -6 3 7 2 16 -1 19 -3 4 -6 -2 -5 -13z"/>
<path d="M2115 1010 c-3 -5 -2 -10 4 -10 5 0 13 5 16 10 3 6 2 10 -4 10 -5 0
-13 -4 -16 -10z"/>
<path d="M2170 995 c-7 -8 -8 -15 -2 -15 5 0 15 7 22 15 7 8 8 15 2 15 -5 0
-15 -7 -22 -15z"/>
</g>
</svg>
